<?xml version="1.0" encoding="UTF-8" standalone="no"?>
<!-- Created with Inkscape (http://www.inkscape.org/) -->

<svg
   xmlns:dc="http://purl.org/dc/elements/1.1/"
   xmlns:cc="http://creativecommons.org/ns#"
   xmlns:rdf="http://www.w3.org/1999/02/22-rdf-syntax-ns#"
   xmlns:svg="http://www.w3.org/2000/svg"
   xmlns="http://www.w3.org/2000/svg"
   xmlns:sodipodi="http://sodipodi.sourceforge.net/DTD/sodipodi-0.dtd"
   xmlns:inkscape="http://www.inkscape.org/namespaces/inkscape"
   version="1.1"
   id="svg2"
   width="96"
   height="96"
   viewBox="0 0 96 96"
   sodipodi:docname="preferences-system-time-symbolic.symbolic.svg"
   inkscape:version="0.92.4 (5da689c313, 2019-01-14)">
  <metadata
     id="metadata8">
    <rdf:RDF>
      <cc:Work
         rdf:about="">
        <dc:format>image/svg+xml</dc:format>
        <dc:type
           rdf:resource="http://purl.org/dc/dcmitype/StillImage" />
        <dc:title></dc:title>
      </cc:Work>
    </rdf:RDF>
  </metadata>
  <defs
     id="defs6" />
  <sodipodi:namedview
     pagecolor="#ffffff"
     bordercolor="#666666"
     borderopacity="1"
     objecttolerance="10"
     gridtolerance="10"
     guidetolerance="10"
     inkscape:pageopacity="0"
     inkscape:pageshadow="2"
     inkscape:window-width="1366"
     inkscape:window-height="704"
     id="namedview4"
     showgrid="false"
     inkscape:zoom="3.4766083"
     inkscape:cx="44.187424"
     inkscape:cy="54.672008"
     inkscape:window-x="0"
     inkscape:window-y="27"
     inkscape:window-maximized="1"
     inkscape:current-layer="svg2" />
  <path
     style="fill:#009800;fill-opacity:1"
     d="M 38.332346,91.305862 C 20.723456,86.563572 7.9078054,72.614682 4.8668334,54.881097 -0.18388856,25.42756 26.706906,-1.3941081 56.214116,3.6658159 c 19.21061,3.294255 33.78838,18.0770631 37.14388,37.6663181 2.9417,17.173524 -6.79641,37.176538 -22.05906,45.311448 -11.14725,5.94142 -22.33953,7.52428 -32.96659,4.66228 z m 23.91112,-13.2071 c 6.54566,-2.90219 13.2919,-9.46746 16.55386,-16.1098 3.67957,-7.492711 3.95475,-20.024904 0.59981,-27.317174 -3.04271,-6.613621 -9.59903,-13.318188 -16.18783,-16.553862 -4.821,-2.367528 -6.87776,-2.770468 -14.14151,-2.770468 -7.26375,0 -9.32051,0.40294 -14.14151,2.770468 -22.294527,10.948544 -25.2513576,40.249503 -5.65353,56.024176 8.44742,6.79949 22.70101,8.51 32.97071,3.95666 z M 37.969516,41.153577 c -7.19027,-6.977138 -9.90757,-10.267252 -9.69586,-11.739784 0.62693,-4.360624 3.79161,-2.833008 13.15638,6.350694 l 9.26206,9.082971 h 8.5654 c 6.39375,0 8.88104,0.380308 9.8103,1.5 0.99319,1.196716 0.99319,1.803284 0,3 -0.95365,1.149082 -3.56836,1.5 -11.17658,1.5 h -9.93168 z"
     id="path817"
     inkscape:connector-curvature="0"
     inkscape:export-xdpi="25.702002"
     inkscape:export-ydpi="25.702002" />
</svg>
