<?xml version="1.0" encoding="UTF-8" standalone="no"?>
<!-- Created with Inkscape (http://www.inkscape.org/) -->

<svg
   xmlns:dc="http://purl.org/dc/elements/1.1/"
   xmlns:cc="http://creativecommons.org/ns#"
   xmlns:rdf="http://www.w3.org/1999/02/22-rdf-syntax-ns#"
   xmlns:svg="http://www.w3.org/2000/svg"
   xmlns="http://www.w3.org/2000/svg"
   xmlns:sodipodi="http://sodipodi.sourceforge.net/DTD/sodipodi-0.dtd"
   xmlns:inkscape="http://www.inkscape.org/namespaces/inkscape"
   width="96"
   height="96"
   viewBox="0 0 25.399999 25.400001"
   version="1.1"
   id="svg13"
   inkscape:version="0.92.4 (5da689c313, 2019-01-14)"
   sodipodi:docname="saldo.svg"
   inkscape:export-filename="/home/rayner/PROYECTOS_PROGRAMAS/etecsa/nauta/Gtk_nauta/inicio/pywifietecsa/imagenes/saldo.png"
   inkscape:export-xdpi="24"
   inkscape:export-ydpi="24">
  <defs
     id="defs7" />
  <sodipodi:namedview
     id="base"
     pagecolor="#ffffff"
     bordercolor="#666666"
     borderopacity="1.0"
     inkscape:pageopacity="0.0"
     inkscape:pageshadow="2"
     inkscape:zoom="3.959798"
     inkscape:cx="-16.831065"
     inkscape:cy="49.107298"
     inkscape:document-units="mm"
     inkscape:current-layer="layer1"
     showgrid="false"
     units="px"
     inkscape:window-width="1366"
     inkscape:window-height="711"
     inkscape:window-x="0"
     inkscape:window-y="25"
     inkscape:window-maximized="1" />
  <metadata
     id="metadata10">
    <rdf:RDF>
      <cc:Work
         rdf:about="">
        <dc:format>image/svg+xml</dc:format>
        <dc:type
           rdf:resource="http://purl.org/dc/dcmitype/StillImage" />
        <dc:title />
      </cc:Work>
    </rdf:RDF>
  </metadata>
  <g
     inkscape:label="Capa 1"
     inkscape:groupmode="layer"
     id="layer1"
     transform="translate(0,-271.59998)">
    <g
       id="g837"
       transform="translate(-0.86862597,-0.20045214)"
       style="fill:#c6bc00;fill-opacity:1">
      <g
         transform="matrix(7.0883515,0,0,7.0883515,-70.339346,-1721.6585)"
         id="text19"
         style="font-style:normal;font-variant:normal;font-weight:normal;font-stretch:normal;font-size:3.88055563px;line-height:1.25;font-family:Cabin;-inkscape-font-specification:Cabin;letter-spacing:0px;word-spacing:0px;fill:#c6bc00;fill-opacity:1;stroke:none;stroke-width:0.26458332"
         aria-label="S">
        <path
           inkscape:connector-curvature="0"
           id="path21"
           style="font-style:normal;font-variant:normal;font-weight:normal;font-stretch:normal;font-family:Cabin;-inkscape-font-specification:Cabin;fill:#c6bc00;fill-opacity:1;stroke-width:0.26458332"
           d="m 11.710519,284.42582 c 0.939094,0 1.059392,-0.46955 1.059392,-0.75671 0,-0.58984 -0.523875,-0.73343 -1.001184,-0.88089 -0.325966,-0.10089 -0.585964,-0.20179 -0.585964,-0.45402 0,-0.28328 0.329848,-0.3997 0.609248,-0.3997 0.271638,0 0.516113,0.11254 0.779991,0.24448 l 0.03881,-0.39194 c -0.155222,-0.0854 -0.500592,-0.18627 -0.853722,-0.18627 -0.745067,0 -0.9779,0.44627 -0.9779,0.78388 0,0.46566 0.434622,0.5976 0.884766,0.74118 0.391936,0.12418 0.702381,0.2406 0.702381,0.54716 0,0.30656 -0.314325,0.4191 -0.648053,0.4191 -0.368653,0 -0.667456,-0.1397 -0.845961,-0.27164 l -0.05045,0.43074 c 0.166864,0.0893 0.48895,0.17463 0.888647,0.17463 z" />
      </g>
      <rect
         ry="0.073592253"
         y="272.07706"
         x="11.642313"
         height="24.915621"
         width="2.9609864"
         id="rect24"
         style="opacity:1;fill:#c6bc00;fill-opacity:1;stroke:none;stroke-width:0.23173578;stroke-linejoin:bevel;stroke-miterlimit:4;stroke-dasharray:none;stroke-opacity:1" />
    </g>
  </g>
</svg>
