<?xml version="1.0" encoding="UTF-8" standalone="no"?>
<!-- Created with Inkscape (http://www.inkscape.org/) -->

<svg
   xmlns:dc="http://purl.org/dc/elements/1.1/"
   xmlns:cc="http://creativecommons.org/ns#"
   xmlns:rdf="http://www.w3.org/1999/02/22-rdf-syntax-ns#"
   xmlns:svg="http://www.w3.org/2000/svg"
   xmlns="http://www.w3.org/2000/svg"
   xmlns:sodipodi="http://sodipodi.sourceforge.net/DTD/sodipodi-0.dtd"
   xmlns:inkscape="http://www.inkscape.org/namespaces/inkscape"
   version="1.1"
   id="svg2"
   width="96"
   height="96"
   viewBox="0 0 96 96"
   sodipodi:docname="system-users-symbolic.symbolic.svg"
   inkscape:version="0.92.4 (5da689c313, 2019-01-14)"
   inkscape:export-filename="/home/rayner/PROYECTOS_PROGRAMAS/etecsa/nauta/Gtk_nauta/inicio/pywifietecsa/imagenes/system-users-symbolic.symbolic.png"
   inkscape:export-xdpi="24"
   inkscape:export-ydpi="24">
  <metadata
     id="metadata8">
    <rdf:RDF>
      <cc:Work
         rdf:about="">
        <dc:format>image/svg+xml</dc:format>
        <dc:type
           rdf:resource="http://purl.org/dc/dcmitype/StillImage" />
        <dc:title />
      </cc:Work>
    </rdf:RDF>
  </metadata>
  <defs
     id="defs6" />
  <sodipodi:namedview
     pagecolor="#ffffff"
     bordercolor="#666666"
     borderopacity="1"
     objecttolerance="10"
     gridtolerance="10"
     guidetolerance="10"
     inkscape:pageopacity="0"
     inkscape:pageshadow="2"
     inkscape:window-width="1366"
     inkscape:window-height="704"
     id="namedview4"
     showgrid="false"
     inkscape:zoom="2.4583333"
     inkscape:cx="-85.830509"
     inkscape:cy="47.999999"
     inkscape:window-x="0"
     inkscape:window-y="27"
     inkscape:window-maximized="1"
     inkscape:current-layer="svg2" />
  <path
     style="fill:#0000ff;fill-opacity:1"
     d="m 44.061764,79.323802 c -2.08587,-2.30486 -2.2537,-12.83621 -0.27815,-17.45338 1.66506,-3.89148 6.10737,-8.20685 9.93827,-9.65426 3.64711,-1.37798 21.72268,-1.37798 25.3698,0 3.83089,1.44741 8.2732,5.76278 9.93826,9.65426 0.75726,1.76984 1.37684,6.08759 1.37684,9.59501 0,9.82244 0.3377,9.68711 -24.17376,9.68711 -18.60584,0 -20.67038,-0.17029 -22.17126,-1.82874 z m -35.9999996,-12 c -2.08587,-2.30486 -2.2537,-12.83621 -0.27815,-17.453378 1.66506,-3.891485 6.1073696,-8.206849 9.9382696,-9.654263 4.12363,-1.558018 22.0881,-1.345281 25.96701,0.307503 3.76151,1.602758 8.74394,6.7138 7.11624,7.299937 -2.37199,0.854158 -7.67897,5.320741 -9.9021,8.334021 -1.28633,1.74352 -2.8691,5.38064 -3.51726,8.08248 l -1.17848,4.91244 h -13.24527 c -11.56181,0 -13.4556196,-0.23243 -14.9002596,-1.82874 z M 60.169354,43.587155 c -7.63389,-4.1421 -7.50876,-16.928906 0.20469,-20.917685 8.4047,-4.346239 18.03274,1.250883 18.03274,10.483073 0,9.246349 -9.94287,14.935195 -18.23743,10.434612 z m -36,-12 c -7.63389,-4.1421 -7.50876,-16.928906 0.20469,-20.917685 8.4047,-4.3462393 18.03274,1.250883 18.03274,10.483073 0,9.246349 -9.94287,14.935195 -18.23743,10.434612 z"
     id="path817"
     inkscape:connector-curvature="0" />
</svg>
